<svg width="365" height="205" viewBox="0 0 365 205" fill="none" xmlns="http://www.w3.org/2000/svg">
<path d="M2.64148 154V134.786H10.7936C11.9282 134.786 12.9529 135.061 13.8679 135.61C14.8011 136.14 15.5331 136.872 16.0637 137.805C16.6127 138.739 16.8872 139.791 16.8872 140.962C16.8872 142.151 16.6127 143.222 16.0637 144.173C15.5331 145.125 14.8011 145.884 13.8679 146.452C12.9529 147.001 11.9282 147.275 10.7936 147.275H6.75873V154H2.64148ZM6.70384 143.57H10.327C10.7662 143.57 11.1596 143.46 11.5073 143.24C11.855 143.002 12.1295 142.691 12.3308 142.307C12.5503 141.923 12.6601 141.484 12.6601 140.989C12.6601 140.495 12.5503 140.065 12.3308 139.699C12.1295 139.315 11.855 139.022 11.5073 138.821C11.1596 138.601 10.7662 138.492 10.327 138.492H6.70384V143.57ZM21.123 154V134.786H29.632C30.8214 134.786 31.9011 135.061 32.8709 135.61C33.8408 136.14 34.6002 136.863 35.1491 137.778C35.7164 138.693 36 139.736 36 140.907C36 142.06 35.7164 143.112 35.1491 144.064C34.6002 144.997 33.8408 145.738 32.8709 146.287C31.9011 146.836 30.8214 147.11 29.632 147.11H25.103V154H21.123ZM32.02 154L27.1342 145.326L31.3613 144.64L36.796 154.027L32.02 154ZM25.103 143.762H29.4399C29.9339 143.762 30.364 143.652 30.7299 143.432C31.1142 143.194 31.407 142.874 31.6083 142.472C31.8096 142.051 31.9102 141.584 31.9102 141.072C31.9102 140.523 31.7913 140.047 31.5534 139.645C31.3155 139.242 30.9678 138.931 30.5104 138.711C30.0529 138.473 29.5222 138.354 28.9184 138.354H25.103V143.762ZM49.1321 154.274C47.7231 154.274 46.4239 154.027 45.2345 153.533C44.045 153.039 43.002 152.353 42.1054 151.475C41.227 150.578 40.55 149.526 40.0742 148.318C39.5984 147.092 39.3605 145.765 39.3605 144.338C39.3605 142.893 39.5984 141.575 40.0742 140.386C40.55 139.178 41.227 138.126 42.1054 137.229C43.002 136.332 44.045 135.637 45.2345 135.143C46.4239 134.649 47.7231 134.402 49.1321 134.402C50.5595 134.402 51.8587 134.649 53.0298 135.143C54.2192 135.637 55.2531 136.332 56.1315 137.229C57.0281 138.126 57.7143 139.178 58.1901 140.386C58.6659 141.593 58.9038 142.911 58.9038 144.338C58.9038 145.765 58.6659 147.083 58.1901 148.291C57.7143 149.498 57.0281 150.551 56.1315 151.447C55.2531 152.344 54.2192 153.039 53.0298 153.533C51.8587 154.027 50.5595 154.274 49.1321 154.274ZM49.1321 150.377C49.9373 150.377 50.6784 150.23 51.3555 149.938C52.0508 149.645 52.6455 149.224 53.1396 148.675C53.6337 148.126 54.018 147.486 54.2924 146.754C54.5852 146.022 54.7316 145.217 54.7316 144.338C54.7316 143.46 54.5852 142.655 54.2924 141.923C54.018 141.191 53.6337 140.559 53.1396 140.029C52.6455 139.48 52.0508 139.059 51.3555 138.766C50.6784 138.455 49.9373 138.3 49.1321 138.3C48.327 138.3 47.5859 138.455 46.9088 138.766C46.2318 139.059 45.6371 139.48 45.1247 140.029C44.6123 140.559 44.2189 141.191 43.9444 141.923C43.6882 142.655 43.5601 143.46 43.5601 144.338C43.5601 145.217 43.6882 146.022 43.9444 146.754C44.2189 147.486 44.6123 148.126 45.1247 148.675C45.6371 149.224 46.2318 149.645 46.9088 149.938C47.5859 150.23 48.327 150.377 49.1321 150.377ZM67.3883 154.274C66.7112 154.274 66.0708 154.192 65.4669 154.027C64.8814 153.863 64.3324 153.634 63.82 153.341C63.326 153.048 62.8776 152.692 62.4751 152.271C62.0725 151.832 61.7339 151.347 61.4595 150.816L63.8475 148.318C64.1586 148.739 64.4422 149.096 64.6984 149.389C64.9729 149.663 65.229 149.883 65.4669 150.047C65.7231 150.212 65.9793 150.331 66.2355 150.404C66.4917 150.459 66.7661 150.487 67.0589 150.487C67.5713 150.487 68.0196 150.368 68.4039 150.13C68.8065 149.892 69.1084 149.563 69.3097 149.142C69.5293 148.721 69.6391 148.236 69.6391 147.687V138.437H66.1257V134.786H76.6384V138.437H73.674V148.153C73.674 149.068 73.5184 149.901 73.2074 150.651C72.8963 151.402 72.4571 152.051 71.8898 152.6C71.3226 153.131 70.6547 153.543 69.8861 153.835C69.1359 154.128 68.3033 154.274 67.3883 154.274ZM81.3925 154V134.786H94.3756V138.409H85.4V150.377H94.5678V154H81.3925ZM83.3139 145.958V142.444H93.0581V145.958H83.3139ZM110.783 154L104.827 145.381L97.1964 134.786H102.247L108.066 143.295L115.834 154H110.783ZM97.0591 154L104.388 143.542L107.517 145.711L101.835 154H97.0591ZM108.505 145.079L105.403 142.993L110.783 134.786H115.559L108.505 145.079ZM119.079 154V134.786H132.062V138.409H123.087V150.377H132.255V154H119.079ZM121.001 145.958V142.444H130.745V145.958H121.001ZM137.052 154V134.786H141.169V150.294H149.87V154H137.052Z" fill="#08416C"/>
<path d="M163.917 154V134.786H175.555V136.872H166.058V151.914H175.5V154H163.917ZM164.905 145.162V143.076H174.018V145.162H164.905ZM180.897 154V134.786H182.846L195.418 151.42L195.033 151.914C194.978 151.621 194.933 151.182 194.896 150.596C194.878 150.011 194.85 149.352 194.814 148.62C194.795 147.87 194.777 147.092 194.759 146.287C194.74 145.482 194.722 144.695 194.704 143.926C194.704 143.158 194.704 142.463 194.704 141.84V134.786H196.845V154H194.841L182.325 137.586L182.654 137.009C182.709 137.741 182.755 138.464 182.791 139.178C182.846 139.892 182.883 140.578 182.901 141.237C182.938 141.895 182.965 142.499 182.983 143.048C183.002 143.597 183.011 144.064 183.011 144.448C183.029 144.832 183.038 145.107 183.038 145.271V154H180.897ZM211.56 154.274C210.151 154.274 208.843 154.027 207.635 153.533C206.427 153.039 205.366 152.353 204.451 151.475C203.536 150.596 202.822 149.563 202.31 148.373C201.816 147.165 201.569 145.857 201.569 144.448C201.569 143.039 201.816 141.74 202.31 140.55C202.822 139.343 203.518 138.3 204.396 137.421C205.293 136.543 206.336 135.866 207.525 135.39C208.733 134.896 210.023 134.649 211.396 134.649C212.365 134.649 213.317 134.786 214.25 135.061C215.202 135.335 216.062 135.719 216.83 136.213C217.599 136.708 218.221 137.266 218.697 137.888L217.269 139.343C216.757 138.812 216.181 138.354 215.54 137.97C214.9 137.586 214.223 137.284 213.509 137.064C212.814 136.845 212.118 136.735 211.423 136.735C210.343 136.735 209.337 136.927 208.404 137.311C207.489 137.696 206.684 138.235 205.988 138.931C205.293 139.608 204.753 140.422 204.369 141.374C203.984 142.307 203.792 143.332 203.792 144.448C203.792 145.528 203.984 146.543 204.369 147.495C204.771 148.428 205.329 149.251 206.043 149.965C206.775 150.66 207.617 151.2 208.568 151.585C209.52 151.969 210.545 152.161 211.643 152.161C212.503 152.161 213.308 152.033 214.058 151.777C214.827 151.52 215.494 151.164 216.062 150.706C216.629 150.23 217.068 149.681 217.379 149.059C217.69 148.437 217.846 147.769 217.846 147.056V146.095L218.285 146.644H211.533V144.53H219.987C220.005 144.677 220.023 144.851 220.042 145.052C220.06 145.235 220.069 145.427 220.069 145.628C220.087 145.811 220.097 145.985 220.097 146.15C220.097 147.339 219.877 148.437 219.438 149.444C218.999 150.432 218.386 151.292 217.599 152.024C216.83 152.737 215.934 153.295 214.909 153.698C213.884 154.082 212.768 154.274 211.56 154.274ZM223.388 154V151.969H226.49V136.817H223.388V134.786H231.732V136.817H228.631V151.969H231.732V154H223.388ZM237.039 154V134.786H238.988L251.559 151.42L251.175 151.914C251.12 151.621 251.074 151.182 251.038 150.596C251.019 150.011 250.992 149.352 250.955 148.62C250.937 147.87 250.919 147.092 250.9 146.287C250.882 145.482 250.864 144.695 250.845 143.926C250.845 143.158 250.845 142.463 250.845 141.84V134.786H252.986V154H250.983L238.466 137.586L238.796 137.009C238.851 137.741 238.896 138.464 238.933 139.178C238.988 139.892 239.024 140.578 239.043 141.237C239.079 141.895 239.107 142.499 239.125 143.048C239.143 143.597 239.152 144.064 239.152 144.448C239.171 144.832 239.18 145.107 239.18 145.271V154H237.039ZM259.193 154V134.786H270.831V136.872H261.334V151.914H270.776V154H259.193ZM260.181 145.162V143.076H269.294V145.162H260.181ZM276.173 154V134.786H287.811V136.872H278.314V151.914H287.756V154H276.173ZM277.161 145.162V143.076H286.274V145.162H277.161ZM293.154 154V134.786H300.675C301.791 134.786 302.797 135.051 303.694 135.582C304.609 136.095 305.332 136.799 305.862 137.696C306.393 138.592 306.658 139.608 306.658 140.742C306.658 141.804 306.402 142.764 305.89 143.625C305.377 144.485 304.682 145.171 303.804 145.683C302.925 146.177 301.937 146.424 300.839 146.424H295.295V154H293.154ZM304.874 154L300.043 145.546L302.102 144.832L307.427 154H304.874ZM295.295 144.338H301.031C301.708 144.338 302.303 144.183 302.816 143.872C303.328 143.56 303.73 143.14 304.023 142.609C304.316 142.06 304.462 141.438 304.462 140.742C304.462 139.992 304.289 139.324 303.941 138.739C303.593 138.153 303.108 137.696 302.486 137.366C301.882 137.037 301.187 136.872 300.4 136.872H295.295V144.338ZM310.917 154V151.969H314.019V136.817H310.917V134.786H319.261V136.817H316.16V151.969H319.261V154H310.917ZM324.568 154V134.786H326.517L339.088 151.42L338.704 151.914C338.649 151.621 338.603 151.182 338.567 150.596C338.548 150.011 338.521 149.352 338.484 148.62C338.466 147.87 338.448 147.092 338.43 146.287C338.411 145.482 338.393 144.695 338.375 143.926C338.375 143.158 338.375 142.463 338.375 141.84V134.786H340.516V154H338.512L325.995 137.586L326.325 137.009C326.38 137.741 326.425 138.464 326.462 139.178C326.517 139.892 326.554 140.578 326.572 141.237C326.608 141.895 326.636 142.499 326.654 143.048C326.672 143.597 326.682 144.064 326.682 144.448C326.7 144.832 326.709 145.107 326.709 145.271V154H324.568ZM355.231 154.274C353.822 154.274 352.514 154.027 351.306 153.533C350.098 153.039 349.037 152.353 348.122 151.475C347.207 150.596 346.493 149.563 345.981 148.373C345.487 147.165 345.24 145.857 345.24 144.448C345.24 143.039 345.487 141.74 345.981 140.55C346.493 139.343 347.189 138.3 348.067 137.421C348.964 136.543 350.007 135.866 351.196 135.39C352.404 134.896 353.694 134.649 355.066 134.649C356.036 134.649 356.988 134.786 357.921 135.061C358.872 135.335 359.732 135.719 360.501 136.213C361.27 136.708 361.892 137.266 362.368 137.888L360.94 139.343C360.428 138.812 359.851 138.354 359.211 137.97C358.571 137.586 357.893 137.284 357.18 137.064C356.484 136.845 355.789 136.735 355.094 136.735C354.014 136.735 353.008 136.927 352.074 137.311C351.159 137.696 350.354 138.235 349.659 138.931C348.964 139.608 348.424 140.422 348.039 141.374C347.655 142.307 347.463 143.332 347.463 144.448C347.463 145.528 347.655 146.543 348.039 147.495C348.442 148.428 349 149.251 349.714 149.965C350.446 150.66 351.288 151.2 352.239 151.585C353.191 151.969 354.215 152.161 355.313 152.161C356.173 152.161 356.978 152.033 357.729 151.777C358.497 151.52 359.165 151.164 359.732 150.706C360.3 150.23 360.739 149.681 361.05 149.059C361.361 148.437 361.517 147.769 361.517 147.056V146.095L361.956 146.644H355.204V144.53H363.658C363.676 144.677 363.694 144.851 363.712 145.052C363.731 145.235 363.74 145.427 363.74 145.628C363.758 145.811 363.767 145.985 363.767 146.15C363.767 147.339 363.548 148.437 363.109 149.444C362.669 150.432 362.056 151.292 361.27 152.024C360.501 152.737 359.604 153.295 358.58 153.698C357.555 154.082 356.439 154.274 355.231 154.274Z" fill="#71797E"/>
<path d="M3.32894 198.747V197.251H5.61378V186.089H3.32894V184.593H9.47576V186.089H7.19092V197.251H9.47576V198.747H3.32894ZM17.6311 198.747V188.192H19.1274L19.188 190.396L18.9454 190.497C19.0802 190.039 19.3431 189.621 19.734 189.244C20.1249 188.866 20.5899 188.563 21.1291 188.334C21.6818 188.091 22.248 187.97 22.8276 187.97C23.6094 187.97 24.2632 188.125 24.7889 188.435C25.3146 188.745 25.7123 189.224 25.9819 189.871C26.2515 190.518 26.3863 191.34 26.3863 192.337V198.747H24.8496V192.418C24.8496 191.717 24.7552 191.144 24.5665 190.7C24.3913 190.241 24.1149 189.904 23.7375 189.689C23.3601 189.473 22.895 189.372 22.3423 189.385C21.884 189.385 21.4594 189.466 21.0685 189.628C20.6776 189.776 20.3406 189.985 20.0575 190.255C19.7744 190.524 19.552 190.834 19.3902 191.185C19.2285 191.535 19.1476 191.913 19.1476 192.317V198.747H18.3995C18.3051 198.747 18.1973 198.747 18.076 198.747C17.9546 198.747 17.8064 198.747 17.6311 198.747ZM35.9942 198.747V185.422H37.5106V198.747H35.9942ZM33.6082 189.648V188.192H40.1797V189.648H33.6082ZM51.8507 198.949C50.7993 198.949 49.8625 198.72 49.0402 198.262C48.2314 197.803 47.5978 197.163 47.1395 196.341C46.6812 195.519 46.452 194.575 46.452 193.51C46.452 192.688 46.5801 191.946 46.8362 191.286C47.0923 190.612 47.4496 190.026 47.9079 189.527C48.3797 189.028 48.9391 188.644 49.5861 188.374C50.2331 188.091 50.9341 187.95 51.689 187.95C52.4034 187.95 53.0504 188.078 53.6301 188.334C54.2232 188.59 54.7287 188.947 55.1466 189.406C55.5779 189.85 55.9014 190.383 56.1171 191.003C56.3328 191.623 56.4271 192.304 56.4002 193.045L56.38 193.753H47.5844L47.3619 192.479H55.2274L54.8635 192.823V192.337C54.8365 191.852 54.695 191.387 54.4389 190.942C54.1827 190.484 53.8188 190.113 53.347 189.83C52.8887 189.547 52.336 189.406 51.689 189.406C50.9341 189.406 50.2803 189.561 49.7277 189.871C49.175 190.167 48.7504 190.612 48.4538 191.205C48.1572 191.798 48.009 192.533 48.009 193.409C48.009 194.245 48.1707 194.973 48.4942 195.593C48.8178 196.199 49.2761 196.671 49.8692 197.008C50.4758 197.345 51.2037 197.514 52.0529 197.514C52.5517 197.514 53.0437 197.433 53.529 197.271C54.0277 197.096 54.5737 196.759 55.1668 196.26L55.9553 197.352C55.6453 197.662 55.2746 197.938 54.8433 198.181C54.4119 198.41 53.9401 198.599 53.4279 198.747C52.9156 198.882 52.3899 198.949 51.8507 198.949ZM68.2619 203.398C67.4801 203.398 66.7387 203.276 66.0377 203.034C65.3368 202.791 64.7572 202.488 64.2988 202.124L64.9054 200.85C65.175 201.066 65.4851 201.254 65.8356 201.416C66.1995 201.591 66.5904 201.726 67.0083 201.82C67.4262 201.928 67.8508 201.982 68.2821 201.982C69.064 201.982 69.7245 201.834 70.2637 201.537C70.8164 201.254 71.2342 200.83 71.5173 200.264C71.8139 199.697 71.9621 198.996 71.9621 198.161V196.139L72.2048 196.078C72.0835 196.59 71.8206 197.069 71.4162 197.514C71.0118 197.945 70.5198 198.295 69.9402 198.565C69.3605 198.821 68.7472 198.949 68.1002 198.949C67.1161 198.949 66.2332 198.713 65.4514 198.242C64.683 197.77 64.0764 197.123 63.6316 196.3C63.1868 195.465 62.9643 194.521 62.9643 193.47C62.9643 192.405 63.1868 191.461 63.6316 190.639C64.0899 189.803 64.7032 189.149 65.4716 188.678C66.2399 188.206 67.1027 187.97 68.0597 187.97C68.4776 187.97 68.882 188.024 69.2729 188.132C69.6638 188.226 70.021 188.368 70.3446 188.556C70.6816 188.745 70.9849 188.961 71.2545 189.203C71.5241 189.446 71.7465 189.709 71.9217 189.992C72.1104 190.275 72.2452 190.565 72.3261 190.861L71.9015 190.801L71.9621 188.192H73.4786V198.1C73.4786 198.949 73.3573 199.697 73.1147 200.344C72.872 201.005 72.5148 201.558 72.043 202.002C71.5847 202.461 71.032 202.805 70.385 203.034C69.7514 203.276 69.0438 203.398 68.2619 203.398ZM68.2821 197.493C68.9966 197.493 69.6301 197.325 70.1828 196.988C70.749 196.637 71.1938 196.159 71.5173 195.552C71.8408 194.946 72.0026 194.245 72.0026 193.449C72.0026 192.668 71.8408 191.973 71.5173 191.367C71.2073 190.76 70.7692 190.282 70.203 189.931C69.6369 189.581 68.9966 189.406 68.2821 189.406C67.5542 189.406 66.9072 189.581 66.341 189.931C65.7884 190.282 65.3503 190.76 65.0268 191.367C64.7032 191.973 64.5415 192.668 64.5415 193.449C64.5415 194.218 64.6965 194.912 65.0065 195.532C65.3301 196.139 65.7682 196.617 66.3208 196.968C66.887 197.318 67.5408 197.493 68.2821 197.493ZM81.686 198.747V188.192H83.2024L83.2429 191.003L83.0811 190.619C83.2294 190.147 83.4653 189.709 83.7888 189.304C84.1258 188.9 84.5235 188.577 84.9818 188.334C85.4401 188.091 85.9456 187.97 86.4983 187.97C86.7274 187.97 86.9431 187.99 87.1453 188.031C87.3475 188.058 87.516 188.098 87.6508 188.152L87.2262 189.85C87.0509 189.769 86.869 189.716 86.6802 189.689C86.505 189.648 86.3365 189.628 86.1748 189.628C85.7164 189.628 85.3053 189.709 84.9413 189.871C84.5774 190.032 84.2674 190.262 84.0112 190.558C83.7551 190.841 83.5597 191.171 83.4249 191.549C83.2901 191.926 83.2227 192.331 83.2227 192.762V198.747H81.686ZM98.1567 198.949C97.2401 198.949 96.4111 198.713 95.6697 198.242C94.9283 197.756 94.3419 197.103 93.9106 196.28C93.4792 195.445 93.2635 194.501 93.2635 193.449C93.2635 192.385 93.4859 191.441 93.9308 190.619C94.3756 189.796 94.9687 189.149 95.7101 188.678C96.465 188.206 97.3075 187.97 98.2376 187.97C98.7903 187.97 99.3025 188.051 99.7743 188.213C100.246 188.374 100.664 188.603 101.028 188.9C101.405 189.183 101.715 189.52 101.958 189.911C102.214 190.288 102.389 190.7 102.484 191.144L102.039 190.922L102.1 188.192H103.616V198.747H102.079V196.159L102.484 195.896C102.389 196.3 102.207 196.691 101.938 197.069C101.668 197.433 101.338 197.756 100.947 198.039C100.57 198.322 100.138 198.545 99.653 198.707C99.1812 198.868 98.6824 198.949 98.1567 198.949ZM98.5004 197.493C99.2014 197.493 99.8282 197.325 100.381 196.988C100.934 196.637 101.365 196.159 101.675 195.552C101.998 194.932 102.16 194.231 102.16 193.449C102.16 192.668 101.998 191.973 101.675 191.367C101.365 190.76 100.934 190.282 100.381 189.931C99.8282 189.581 99.2014 189.406 98.5004 189.406C97.786 189.406 97.1525 189.581 96.5998 189.931C96.0606 190.282 95.6292 190.76 95.3057 191.367C94.9957 191.973 94.8407 192.668 94.8407 193.449C94.8407 194.218 94.9957 194.912 95.3057 195.532C95.6158 196.139 96.0471 196.617 96.5998 196.968C97.1525 197.318 97.786 197.493 98.5004 197.493ZM113.283 198.747V185.422H114.8V198.747H113.283ZM110.898 189.648V188.192H117.469V189.648H110.898ZM129.14 198.949C128.089 198.949 127.152 198.72 126.33 198.262C125.521 197.803 124.887 197.163 124.429 196.341C123.971 195.519 123.741 194.575 123.741 193.51C123.741 192.688 123.869 191.946 124.126 191.286C124.382 190.612 124.739 190.026 125.197 189.527C125.669 189.028 126.228 188.644 126.875 188.374C127.522 188.091 128.223 187.95 128.978 187.95C129.693 187.95 130.34 188.078 130.919 188.334C131.513 188.59 132.018 188.947 132.436 189.406C132.867 189.85 133.191 190.383 133.406 191.003C133.622 191.623 133.716 192.304 133.69 193.045L133.669 193.753H124.874L124.651 192.479H132.517L132.153 192.823V192.337C132.126 191.852 131.984 191.387 131.728 190.942C131.472 190.484 131.108 190.113 130.636 189.83C130.178 189.547 129.625 189.406 128.978 189.406C128.223 189.406 127.57 189.561 127.017 189.871C126.464 190.167 126.04 190.612 125.743 191.205C125.447 191.798 125.298 192.533 125.298 193.409C125.298 194.245 125.46 194.973 125.784 195.593C126.107 196.199 126.565 196.671 127.159 197.008C127.765 197.345 128.493 197.514 129.342 197.514C129.841 197.514 130.333 197.433 130.818 197.271C131.317 197.096 131.863 196.759 132.456 196.26L133.245 197.352C132.935 197.662 132.564 197.938 132.133 198.181C131.701 198.41 131.229 198.599 130.717 198.747C130.205 198.882 129.679 198.949 129.14 198.949ZM145.387 198.949C144.43 198.949 143.567 198.713 142.799 198.242C142.044 197.77 141.444 197.123 140.999 196.3C140.568 195.465 140.352 194.521 140.352 193.47C140.352 192.405 140.575 191.461 141.02 190.639C141.464 189.803 142.064 189.149 142.819 188.678C143.574 188.206 144.423 187.97 145.367 187.97C145.893 187.97 146.398 188.051 146.883 188.213C147.382 188.374 147.827 188.603 148.218 188.9C148.609 189.183 148.932 189.513 149.188 189.891C149.445 190.255 149.6 190.639 149.653 191.043L149.188 190.882V183.784H150.705V198.747H149.209L149.168 196.118L149.552 195.977C149.498 196.354 149.343 196.725 149.087 197.089C148.845 197.44 148.535 197.756 148.157 198.039C147.78 198.322 147.348 198.545 146.863 198.707C146.391 198.868 145.899 198.949 145.387 198.949ZM145.61 197.554C146.31 197.554 146.937 197.379 147.49 197.028C148.043 196.678 148.474 196.193 148.784 195.573C149.108 194.952 149.269 194.245 149.269 193.449C149.269 192.654 149.108 191.953 148.784 191.347C148.474 190.727 148.043 190.241 147.49 189.891C146.937 189.527 146.31 189.345 145.61 189.345C144.882 189.345 144.241 189.527 143.689 189.891C143.149 190.241 142.718 190.727 142.395 191.347C142.085 191.953 141.93 192.654 141.93 193.449C141.93 194.231 142.085 194.932 142.395 195.552C142.705 196.172 143.136 196.664 143.689 197.028C144.241 197.379 144.882 197.554 145.61 197.554ZM170.447 198.747V184.593H179.02V186.13H172.024V197.21H178.98V198.747H170.447ZM171.175 192.236V190.7H177.888V192.236H171.175ZM187.808 198.747V184.593H193.409C194.15 184.593 194.818 184.775 195.411 185.139C196.004 185.503 196.476 186.009 196.826 186.656C197.177 187.289 197.352 188.004 197.352 188.799C197.352 189.635 197.177 190.383 196.826 191.043C196.476 191.69 196.004 192.209 195.411 192.6C194.818 192.978 194.15 193.166 193.409 193.166H189.385V198.747H187.808ZM189.385 191.63H193.49C193.908 191.63 194.279 191.508 194.602 191.266C194.939 191.01 195.209 190.673 195.411 190.255C195.613 189.823 195.714 189.331 195.714 188.779C195.714 188.28 195.613 187.835 195.411 187.444C195.209 187.04 194.939 186.723 194.602 186.494C194.279 186.251 193.908 186.13 193.49 186.13H189.385V191.63ZM211.507 198.949C210.496 198.949 209.566 198.774 208.717 198.424C207.868 198.06 207.133 197.554 206.513 196.907C205.893 196.247 205.408 195.471 205.057 194.582C204.72 193.692 204.552 192.722 204.552 191.67C204.552 190.632 204.72 189.682 205.057 188.819C205.408 187.943 205.9 187.181 206.533 186.534C207.167 185.874 207.901 185.368 208.737 185.018C209.573 184.667 210.489 184.492 211.487 184.492C212.148 184.492 212.801 184.6 213.448 184.816C214.095 185.018 214.688 185.301 215.228 185.665C215.78 186.029 216.232 186.447 216.582 186.918L215.491 188.051C215.154 187.646 214.763 187.296 214.318 186.999C213.886 186.703 213.428 186.474 212.943 186.312C212.458 186.15 211.972 186.069 211.487 186.069C210.732 186.069 210.024 186.211 209.364 186.494C208.717 186.763 208.157 187.148 207.686 187.646C207.214 188.145 206.843 188.738 206.574 189.426C206.317 190.113 206.189 190.861 206.189 191.67C206.189 192.506 206.317 193.274 206.574 193.975C206.843 194.676 207.221 195.283 207.706 195.795C208.205 196.294 208.784 196.685 209.445 196.968C210.119 197.237 210.867 197.372 211.689 197.372C212.174 197.372 212.66 197.305 213.145 197.17C213.63 197.022 214.075 196.819 214.48 196.563C214.884 196.307 215.228 196.017 215.511 195.694L216.32 197.008C216.009 197.386 215.592 197.723 215.066 198.019C214.554 198.302 213.988 198.531 213.367 198.707C212.747 198.868 212.127 198.949 211.507 198.949ZM239.614 198.949C238.899 198.949 238.225 198.848 237.592 198.646C236.958 198.444 236.379 198.14 235.853 197.736C235.327 197.332 234.862 196.833 234.458 196.24L235.55 195.027C236.183 195.93 236.83 196.563 237.491 196.927C238.165 197.291 238.92 197.473 239.755 197.473C240.362 197.473 240.915 197.372 241.413 197.17C241.912 196.968 242.303 196.685 242.586 196.321C242.869 195.957 243.011 195.539 243.011 195.067C243.011 194.757 242.957 194.481 242.849 194.238C242.755 193.995 242.606 193.78 242.404 193.591C242.202 193.402 241.953 193.234 241.656 193.086C241.359 192.937 241.016 192.802 240.625 192.681C240.247 192.56 239.823 192.438 239.351 192.317C238.663 192.155 238.057 191.967 237.531 191.751C237.019 191.522 236.581 191.246 236.217 190.922C235.866 190.598 235.597 190.228 235.408 189.81C235.233 189.379 235.145 188.873 235.145 188.293C235.145 187.741 235.26 187.229 235.489 186.757C235.732 186.285 236.062 185.881 236.48 185.544C236.898 185.193 237.39 184.923 237.956 184.735C238.522 184.546 239.129 184.452 239.776 184.452C240.503 184.452 241.151 184.553 241.717 184.755C242.296 184.944 242.809 185.227 243.253 185.604C243.698 185.982 244.082 186.433 244.406 186.959L243.294 188.051C243.011 187.606 242.687 187.222 242.323 186.898C241.973 186.575 241.582 186.332 241.151 186.17C240.733 185.995 240.268 185.908 239.755 185.908C239.162 185.908 238.637 186.009 238.178 186.211C237.733 186.413 237.383 186.696 237.127 187.06C236.871 187.411 236.743 187.815 236.743 188.273C236.743 188.61 236.803 188.914 236.925 189.183C237.046 189.439 237.235 189.668 237.491 189.871C237.76 190.059 238.104 190.235 238.522 190.396C238.953 190.545 239.466 190.686 240.059 190.821C240.76 190.983 241.386 191.178 241.939 191.407C242.505 191.636 242.984 191.913 243.375 192.236C243.779 192.546 244.082 192.91 244.285 193.328C244.5 193.746 244.608 194.225 244.608 194.764C244.608 195.6 244.399 196.334 243.981 196.968C243.563 197.588 242.977 198.073 242.222 198.424C241.481 198.774 240.611 198.949 239.614 198.949ZM257.112 198.949C256.061 198.949 255.124 198.713 254.301 198.242C253.493 197.77 252.852 197.116 252.381 196.28C251.922 195.445 251.693 194.494 251.693 193.429C251.693 192.378 251.922 191.441 252.381 190.619C252.852 189.796 253.493 189.149 254.301 188.678C255.124 188.206 256.061 187.97 257.112 187.97C258.15 187.97 259.073 188.206 259.882 188.678C260.704 189.149 261.345 189.796 261.803 190.619C262.275 191.441 262.511 192.378 262.511 193.429C262.511 194.494 262.275 195.445 261.803 196.28C261.345 197.116 260.704 197.77 259.882 198.242C259.073 198.713 258.15 198.949 257.112 198.949ZM257.112 197.514C257.853 197.514 258.514 197.338 259.094 196.988C259.673 196.624 260.125 196.139 260.448 195.532C260.772 194.912 260.934 194.211 260.934 193.429C260.934 192.647 260.772 191.953 260.448 191.347C260.125 190.74 259.673 190.268 259.094 189.931C258.514 189.581 257.853 189.406 257.112 189.406C256.371 189.406 255.703 189.581 255.11 189.931C254.531 190.268 254.072 190.747 253.735 191.367C253.412 191.973 253.257 192.661 253.27 193.429C253.257 194.211 253.412 194.912 253.735 195.532C254.072 196.139 254.531 196.624 255.11 196.988C255.703 197.338 256.371 197.514 257.112 197.514ZM270.021 198.747V183.784H271.537V198.747H270.021ZM283.421 198.949C282.612 198.949 281.925 198.788 281.359 198.464C280.806 198.127 280.381 197.642 280.085 197.008C279.802 196.375 279.66 195.586 279.66 194.642V188.192H281.197V194.339C281.197 195.054 281.291 195.653 281.48 196.139C281.682 196.611 281.979 196.968 282.369 197.21C282.774 197.453 283.266 197.574 283.846 197.574C284.29 197.574 284.702 197.5 285.079 197.352C285.456 197.19 285.787 196.974 286.07 196.705C286.353 196.435 286.575 196.118 286.737 195.755C286.899 195.391 286.98 195.006 286.98 194.602V188.192H288.496V198.747H287L286.939 196.523L287.182 196.402C287.02 196.873 286.75 197.305 286.373 197.696C285.996 198.073 285.544 198.376 285.018 198.606C284.506 198.835 283.974 198.949 283.421 198.949ZM298.162 198.747V185.422H299.678V198.747H298.162ZM295.776 189.648V188.192H302.347V189.648H295.776ZM309.871 198.747V188.192H311.387V198.747H309.871ZM310.619 185.908C310.242 185.908 309.952 185.813 309.75 185.624C309.561 185.422 309.467 185.153 309.467 184.816C309.467 184.479 309.568 184.209 309.77 184.007C309.972 183.805 310.255 183.704 310.619 183.704C310.983 183.704 311.266 183.805 311.468 184.007C311.67 184.196 311.772 184.465 311.772 184.816C311.772 185.139 311.67 185.402 311.468 185.604C311.266 185.806 310.983 185.908 310.619 185.908ZM324.627 198.949C323.576 198.949 322.639 198.713 321.817 198.242C321.008 197.77 320.367 197.116 319.896 196.28C319.437 195.445 319.208 194.494 319.208 193.429C319.208 192.378 319.437 191.441 319.896 190.619C320.367 189.796 321.008 189.149 321.817 188.678C322.639 188.206 323.576 187.97 324.627 187.97C325.665 187.97 326.588 188.206 327.397 188.678C328.219 189.149 328.86 189.796 329.318 190.619C329.79 191.441 330.026 192.378 330.026 193.429C330.026 194.494 329.79 195.445 329.318 196.28C328.86 197.116 328.219 197.77 327.397 198.242C326.588 198.713 325.665 198.949 324.627 198.949ZM324.627 197.514C325.368 197.514 326.029 197.338 326.609 196.988C327.188 196.624 327.64 196.139 327.963 195.532C328.287 194.912 328.449 194.211 328.449 193.429C328.449 192.647 328.287 191.953 327.963 191.347C327.64 190.74 327.188 190.268 326.609 189.931C326.029 189.581 325.368 189.406 324.627 189.406C323.886 189.406 323.218 189.581 322.625 189.931C322.046 190.268 321.587 190.747 321.25 191.367C320.927 191.973 320.772 192.661 320.785 193.429C320.772 194.211 320.927 194.912 321.25 195.532C321.587 196.139 322.046 196.624 322.625 196.988C323.218 197.338 323.886 197.514 324.627 197.514ZM337.495 198.747V188.192H338.992L339.052 190.396L338.81 190.497C338.944 190.039 339.207 189.621 339.598 189.244C339.989 188.866 340.454 188.563 340.993 188.334C341.546 188.091 342.112 187.97 342.692 187.97C343.474 187.97 344.127 188.125 344.653 188.435C345.179 188.745 345.577 189.224 345.846 189.871C346.116 190.518 346.251 191.34 346.251 192.337V198.747H344.714V192.418C344.714 191.717 344.619 191.144 344.431 190.7C344.256 190.241 343.979 189.904 343.602 189.689C343.224 189.473 342.759 189.372 342.207 189.385C341.748 189.385 341.324 189.466 340.933 189.628C340.542 189.776 340.205 189.985 339.922 190.255C339.639 190.524 339.416 190.834 339.255 191.185C339.093 191.535 339.012 191.913 339.012 192.317V198.747H338.264C338.169 198.747 338.062 198.747 337.94 198.747C337.819 198.747 337.671 198.747 337.495 198.747ZM357.86 198.949C356.957 198.949 356.148 198.781 355.434 198.444C354.719 198.107 354.153 197.662 353.735 197.109L354.807 196.179C355.198 196.651 355.656 197.008 356.182 197.251C356.721 197.493 357.321 197.615 357.982 197.615C358.319 197.615 358.622 197.581 358.891 197.514C359.161 197.433 359.397 197.318 359.599 197.17C359.801 197.022 359.956 196.846 360.064 196.644C360.172 196.442 360.226 196.22 360.226 195.977C360.226 195.532 360.03 195.161 359.64 194.865C359.464 194.744 359.215 194.622 358.891 194.501C358.568 194.366 358.177 194.238 357.719 194.117C356.964 193.901 356.337 193.685 355.838 193.47C355.339 193.241 354.949 192.978 354.665 192.681C354.463 192.438 354.308 192.176 354.2 191.893C354.106 191.609 354.059 191.299 354.059 190.962C354.059 190.531 354.147 190.133 354.322 189.769C354.51 189.406 354.767 189.089 355.09 188.819C355.427 188.536 355.818 188.327 356.263 188.192C356.721 188.044 357.213 187.97 357.739 187.97C358.238 187.97 358.73 188.037 359.215 188.172C359.7 188.307 360.152 188.502 360.57 188.758C360.988 189.015 361.345 189.318 361.641 189.668L360.711 190.679C360.455 190.41 360.172 190.167 359.862 189.951C359.552 189.736 359.222 189.567 358.871 189.446C358.534 189.325 358.184 189.264 357.82 189.264C357.496 189.264 357.193 189.304 356.91 189.385C356.64 189.466 356.404 189.581 356.202 189.729C356.013 189.864 355.865 190.032 355.757 190.235C355.663 190.437 355.616 190.659 355.616 190.902C355.616 191.104 355.656 191.286 355.737 191.448C355.818 191.609 355.933 191.751 356.081 191.872C356.27 192.021 356.532 192.162 356.869 192.297C357.22 192.418 357.651 192.546 358.163 192.681C358.757 192.843 359.255 193.011 359.66 193.187C360.078 193.348 360.421 193.544 360.691 193.773C361.055 194.043 361.311 194.353 361.459 194.703C361.621 195.054 361.702 195.451 361.702 195.896C361.702 196.489 361.533 197.015 361.196 197.473C360.873 197.932 360.421 198.295 359.842 198.565C359.262 198.821 358.602 198.949 357.86 198.949Z" fill="#505050"/>
<line x1="2.79358e-08" y1="170.395" x2="364.835" y2="170.395" stroke="#9E9E9E" stroke-width="0.639096"/>
<path d="M230.533 29.3108C231.804 28.6392 233.77 27.8884 234.9 27.6479C236.03 27.4075 237.515 27.2022 238.201 27.1875C238.888 27.1758 240.473 27.3723 241.723 27.6245C243.111 27.906 244.854 28.5424 246.198 29.258C247.407 29.9032 248.971 30.9824 249.673 31.6569C250.374 32.3314 251.53 33.7068 252.24 34.7157C253.52 36.5281 253.546 36.5457 254.488 36.2436C255.014 36.0764 256.102 35.7568 256.909 35.5368C257.716 35.3169 260.686 34.4723 263.512 33.6599C266.261 32.8661 270.716 31.5856 273.557 30.7689L273.783 30.7038C276.607 29.8885 279.019 29.2228 279.139 29.2199C279.259 29.2199 279.609 30.1084 279.911 31.1965C280.216 32.2845 280.609 33.7684 280.788 34.4957C280.964 35.223 281.246 36.8389 281.408 38.0882C281.572 39.3376 281.707 42.1764 281.704 44.3935C281.704 46.6106 281.504 49.7456 281.267 51.3586C281.026 52.9715 280.433 55.7107 279.949 57.4439C279.462 59.1771 278.42 61.9484 277.631 63.6025C276.844 65.2565 275.403 67.7962 274.432 69.2479C273.458 70.6995 271.629 72.9958 270.362 74.3507C269.097 75.7027 266.74 77.7995 265.126 79.0078C263.512 80.216 260.936 81.829 259.404 82.5974C257.872 83.3628 255.228 84.4655 253.535 85.0462C251.841 85.6268 249.001 86.3893 247.225 86.7412C244.622 87.2574 242.944 87.3835 238.568 87.3864C233.688 87.3923 232.769 87.3102 229.471 86.577C227.452 86.1283 224.549 85.3042 223.015 84.747C221.48 84.1898 218.974 83.0637 217.439 82.2455C215.904 81.4302 213.627 79.9844 212.377 79.0371C211.126 78.0869 210.035 77.1807 209.956 77.0194C209.876 76.8581 209.677 76.7936 209.515 76.8728C209.328 76.9666 209.222 81.8085 209.222 104L192.935 103.853L192.826 55.171L196.11 51.3615C197.915 49.2676 201.378 45.4404 203.808 42.8568C206.237 40.276 208.647 37.8654 210.102 36.8419L209.882 38.6748C209.762 39.6836 209.68 42.0268 209.697 43.8803C209.724 46.3261 209.914 47.9391 210.387 49.7456C210.745 51.1152 211.382 53.0947 211.804 54.1446C212.224 55.1945 213.06 56.9072 213.662 57.9571C214.266 59.007 215.534 60.7871 216.479 61.9162C217.427 63.0453 219.073 64.6964 220.136 65.582C221.198 66.4677 222.777 67.6232 223.643 68.1452C224.508 68.6672 226.339 69.5763 227.71 70.1687C229.08 70.7582 231.393 71.4855 232.846 71.7817C234.328 72.0837 236.743 72.3213 238.348 72.3242C239.921 72.3242 242.233 72.1277 243.483 71.8814C244.734 71.6351 246.814 71.0075 248.106 70.4884C249.397 69.9664 251.495 68.9458 252.766 68.2214C254.11 67.456 256.19 65.8548 257.725 64.409C259.178 63.0394 260.933 61.1244 261.625 60.1566C262.315 59.1888 263.28 57.5406 263.768 56.4907C264.255 55.4408 264.736 54.2561 264.833 53.8513C265.009 53.1328 264.924 53.0918 260.375 51.734C257.822 50.9715 255.307 50.2794 254.782 50.1943C253.875 50.0477 253.79 50.1151 253.053 51.5785C252.628 52.4261 251.339 54.0537 250.192 55.1945C248.81 56.5699 247.46 57.5846 246.198 58.1946C245.147 58.702 243.498 59.3178 242.53 59.5642C241.561 59.8105 239.745 60.0129 238.495 60.0129C237.245 60.01 235.528 59.8633 234.68 59.6844C233.832 59.5055 232.147 58.8985 230.938 58.3354C229.494 57.6667 228.15 56.743 227.029 55.6549C226.087 54.7429 224.94 53.4056 224.476 52.6783C224.012 51.951 223.285 50.4348 222.856 49.3057C222.316 47.8775 222.034 46.4493 221.923 44.6134C221.808 42.6925 221.896 41.4549 222.249 40.0678C222.513 39.0208 223.114 37.3697 223.581 36.402C224.05 35.4342 225.286 33.7186 226.328 32.5895C227.71 31.0909 228.846 30.2052 230.533 29.3108Z" fill="#08416C"/>
<path d="M117.438 1.05739C118.973 0.734801 121.35 0.347689 122.721 0.198123C124.091 0.0485567 127.128 -0.0159621 129.47 0.054422C131.812 0.121873 134.978 0.382881 136.513 0.632158C138.048 0.881435 140.689 1.4797 142.382 1.96066C144.225 2.48267 147.116 3.65281 149.572 4.86987C151.982 6.06346 154.834 7.76734 156.469 8.98733C158.003 10.134 160.316 12.1517 161.61 13.4714C162.904 14.794 164.709 16.8616 165.622 18.0727C166.531 19.281 167.881 21.2957 168.624 22.5451C169.363 23.7944 169.971 24.9176 169.977 25.0378C169.982 25.1581 168.694 26.1757 167.115 27.2989C165.537 28.4192 163.782 29.6861 163.218 30.1114C162.655 30.5366 160.21 32.3138 157.789 34.0587L156.913 34.6911C154.65 36.3246 152.029 38.2172 150.746 39.1469C149.293 40.1968 146.916 41.9359 145.464 43.0092C144.011 44.0826 142.271 45.3436 141.599 45.8129C140.924 46.2821 138.614 47.9479 136.463 49.5139C134.312 51.0829 132.419 52.3615 132.258 52.3586C132.097 52.3586 129.984 49.772 127.563 46.6135C125.142 43.455 123.161 40.7071 123.161 40.5047C123.161 40.3024 124.273 39.2994 125.632 38.27C126.99 37.2436 128.839 35.8682 129.74 35.2171C130.641 34.5631 132.39 33.2434 133.626 32.2845C134.861 31.3225 136.71 29.9237 137.734 29.17C138.758 28.4192 141.112 26.6567 142.969 25.2549C144.827 23.8501 146.541 22.5979 146.784 22.4688C147.175 22.2635 147.175 22.1814 146.784 21.7269C146.541 21.4482 145.552 20.6506 144.583 19.9585C143.615 19.2663 141.931 18.2956 140.842 17.8C139.753 17.3044 137.705 16.6064 136.293 16.2457C134.083 15.6826 132.968 15.5946 128.296 15.6034C123.633 15.6122 122.536 15.7031 120.52 16.2574C119.228 16.6123 116.983 17.4745 115.531 18.1754C114.078 18.8763 111.939 20.1637 110.78 21.0347C109.617 21.9057 107.845 23.5422 106.841 24.6713C105.841 25.8003 104.711 27.2197 104.332 27.8239C103.954 28.428 103.126 29.9471 102.489 31.1964C101.855 32.4458 100.993 34.7215 100.573 36.2553C100.051 38.1557 99.7513 40.1587 99.628 42.5605C99.4901 45.2762 99.5664 46.7484 99.9714 49.0124C100.259 50.6254 100.884 53.0008 101.359 54.2912C101.838 55.5816 102.563 57.2298 102.973 57.9571C103.381 58.6844 104.13 59.8692 104.632 60.5965C105.136 61.3238 106.342 62.7578 107.311 63.7872C108.282 64.8195 109.867 66.2243 110.835 66.9134C111.804 67.6055 113.653 68.6936 114.944 69.3387C116.235 69.981 118.48 70.8784 119.933 71.333C122.389 72.1042 122.923 72.1629 127.563 72.1717C131.533 72.1776 133 72.0661 134.752 71.6204C135.961 71.3124 138.01 70.635 139.301 70.1188C140.592 69.5998 142.705 68.6554 143.996 68.022C145.288 67.3885 147.732 65.9662 149.426 64.8606C151.119 63.7579 154.417 61.3238 156.753 59.4527C159.089 57.5817 163.06 54.0038 165.578 51.5052C168.096 49.0065 170.872 46.1677 171.749 45.1999C172.627 44.2322 174.267 42.4022 175.397 41.1353C176.527 39.8683 177.915 38.27 178.478 37.5838C179.042 36.8976 180.35 35.3608 181.381 34.1702C182.414 32.9795 184.063 31.085 185.049 29.9647C186.035 28.8415 187.966 26.7124 189.336 25.2285C190.707 23.7445 193.219 21.2254 194.912 19.63C196.605 18.0317 199.117 15.797 200.488 14.6591C201.858 13.5183 204.632 11.4742 206.651 10.1135C208.667 8.75272 211.771 6.90514 213.547 6.00188C215.322 5.10155 217.699 3.99886 218.829 3.55016C219.959 3.1044 222.204 2.35657 223.818 1.89027C225.432 1.42398 228.006 0.860906 229.541 0.640956C231.075 0.421006 233.581 0.154133 235.116 0.0514893C236.677 -0.0540868 239.131 0.00749931 240.692 0.192258C242.227 0.374083 244.733 0.790522 246.268 1.11898C247.803 1.44451 250.244 2.14248 251.697 2.66743C253.15 3.18945 255.394 4.14256 256.686 4.78189C257.977 5.42414 259.826 6.45057 260.794 7.06644C261.763 7.6823 263.347 8.79084 264.316 9.53574C265.284 10.2777 267.054 11.876 268.251 13.0872C269.448 14.2955 271.103 16.2105 271.931 17.3396C272.759 18.4687 273.859 20.0523 274.373 20.8588C274.886 21.6653 275.309 22.4893 275.315 22.6917C275.318 22.8999 274.282 23.3603 272.899 23.7592C271.567 24.1434 268.762 24.9557 266.663 25.5598C264.565 26.1669 262.517 26.7153 262.115 26.7769C261.504 26.8678 261.096 26.5394 259.694 24.8267C258.766 23.6917 256.785 21.8266 255.292 20.6799C253.798 19.5332 251.389 18.0258 249.936 17.3308C248.483 16.6357 246.238 15.7853 244.947 15.4421C243.656 15.1019 241.346 14.7148 239.812 14.5829C238.277 14.4509 235.967 14.4421 234.676 14.5594C233.385 14.6796 231.865 14.8703 231.301 14.9846C230.738 15.099 229.35 15.4627 228.22 15.7882C227.09 16.1137 225.109 16.8498 223.818 17.4246C222.527 17.9965 220.282 19.1842 218.829 20.0582C217.377 20.935 215.196 22.3838 213.987 23.2812C212.775 24.1786 210.929 25.6449 209.879 26.5394C208.828 27.4368 206.266 29.7594 204.185 31.7009C202.102 33.6394 198.924 36.877 197.125 38.8947C195.326 40.9094 191.297 45.5959 188.171 49.3057C185.046 53.0155 180.43 58.1037 177.915 60.6141C175.4 63.1244 172.357 66.0278 171.15 67.0659C169.947 68.1041 168.627 69.2625 168.216 69.6408C167.808 70.0162 165.493 71.8051 163.071 73.6116C160.65 75.4211 157.281 77.7643 155.588 78.8201C153.895 79.8788 151.515 81.2659 150.306 81.9052C149.094 82.5446 147.113 83.4742 145.904 83.9698C144.692 84.4655 142.911 85.1429 141.942 85.4743C140.974 85.8057 139.125 86.3365 137.834 86.6562C136.543 86.9729 134.362 87.3776 132.992 87.5536C131.621 87.7295 128.913 87.8703 126.976 87.8673C125.039 87.8615 122.134 87.6738 120.52 87.445C118.906 87.2192 116.461 86.7471 115.091 86.3981C113.72 86.0462 111.639 85.3775 110.468 84.9083C109.298 84.442 107.252 83.5123 105.92 82.8466C104.588 82.1809 102.322 80.8289 100.881 79.8406C99.4431 78.8553 97.1659 76.9578 95.8189 75.6264C94.4748 74.295 92.673 72.2509 91.8161 71.0807C90.9592 69.9106 89.7853 68.1627 89.2072 67.195C88.6291 66.2272 87.7281 64.579 87.2058 63.5291C86.6834 62.4792 85.7531 60.1067 85.1369 58.2503C84.5206 56.3939 83.7899 53.6255 83.514 52.0917C83.1648 50.162 83.0093 47.6868 83.0005 44.0269C82.9917 39.6513 83.1003 38.2202 83.6432 35.6688C84.0041 33.9766 84.7114 31.3372 85.2161 29.8034C85.7179 28.2696 86.701 25.8297 87.3936 24.378C88.0891 22.9263 89.4214 20.5802 90.3546 19.1637C91.2908 17.7472 92.9782 15.5624 94.108 14.3101C95.2378 13.0579 97.1952 11.181 98.4571 10.1399C99.719 9.09878 101.764 7.60018 103.006 6.80543C104.244 6.01361 106.316 4.86987 107.607 4.26574C108.898 3.66161 111.011 2.82579 112.303 2.40642C113.594 1.98705 115.903 1.37999 117.438 1.05739Z" fill="#71797E"/>
</svg>
